<svg xmlns="http://www.w3.org/2000/svg" viewBox="0 0 48 48" width="24" height="24">
  <circle cx="24" cy="24" r="6.5" fill="none" stroke="#000" stroke-width="3"/>
  <path fill="none" stroke="#000" stroke-linecap="round" stroke-linejoin="round" stroke-width="3" d="M30.8 35.7c1.2-.7 2.8-.8 4.1-.2l2.7 1.2c1.9-2 3.4-4.5 4.2-7.3l-2.4-1.7c-1.2-.8-1.8-2.2-1.8-3.6s.7-2.8 1.8-3.6l2.4-1.7c-.8-2.8-2.3-5.2-4.2-7.3l-2.7 1.2c-1.3.6-2.8.5-4.1-.2s-2.1-2-2.2-3.4L28.2 6c-1.4-.3-2.8-.5-4.2-.5s-2.9.2-4.2.5M17.3 12.3c-1.2.7-2.8.8-4.1.2l-2.7-1.2c-1.9 2-3.4 4.5-4.2 7.3l2.4 1.7c1.2.8 1.8 2.2 1.8 3.6s-.7 2.8-1.8 3.6l-2.4 1.7c.8 2.8 2.3 5.2 4.2 7.3l2.7-1.2c1.3-.6 2.8-.5 4.1.2s2.1 2 2.2 3.4l.3 2.9c1.4.3 2.8.5 4.2.5s2.9-.2 4.2-.5"/>
</svg>