<svg xmlns="http://www.w3.org/2000/svg" viewBox="0 0 48 48" width="24" height="24">
  <path d="M25.97 1.986a1.5 1.5 0 0 0-1.03.453l-3.872 3.872a1.5 1.5 0 0 0-.283.283l-.346.345a1.5 1.5 0 0 0 0 2.122l4.5 4.5a1.5 1.5 0 1 0 2.122-2.122l-2.407-2.406C32.65 9.377 39 15.918 39 24c0 2.581-.65 4.995-1.795 7.11a1.5 1.5 0 1 0 2.639 1.43A17.894 17.894 0 0 0 42 24c0-9.403-7.254-17.135-16.457-17.922l1.518-1.517a1.5 1.5 0 0 0-1.09-2.575zM14.579 9.012a1.5 1.5 0 0 0-.943.285 18.135 18.135 0 0 0-4.53 4.607 1.5 1.5 0 1 0 2.48 1.688 15.136 15.136 0 0 1 3.78-3.844 1.5 1.5 0 0 0-.787-2.736zm-6.172 8.146a1.5 1.5 0 0 0-1.447 1.035A17.944 17.944 0 0 0 6 24c0 9.403 7.254 17.135 16.457 17.922l-1.518 1.517a1.5 1.5 0 1 0 2.122 2.122l3.87-3.872a1.5 1.5 0 0 0 .284-.283l.346-.345a1.5 1.5 0 0 0 0-2.122l-4.5-4.5a1.5 1.5 0 0 0-1.077-.455 1.5 1.5 0 0 0-1.045 2.577l2.407 2.406C15.35 38.623 9 32.082 9 24c0-1.697.281-3.32.799-4.836a1.5 1.5 0 0 0-1.393-2.006zm27.692 16.617a1.5 1.5 0 0 0-.157.002 1.5 1.5 0 0 0-1.015.485 15.16 15.16 0 0 1-2.291 1.99 1.5 1.5 0 1 0 1.73 2.451c.994-.701 1.913-1.5 2.744-2.383a1.5 1.5 0 0 0-1.011-2.545z"/>
</svg>