<svg width="400" height="400" viewBox="0 0 400 400" fill="none" xmlns="http://www.w3.org/2000/svg">
<g clip-path="url(#clip0_37_2)">
<path fill-rule="evenodd" clip-rule="evenodd" d="M198.4 74.2551C175.126 76.7271 158.335 95.1611 158.417 118.149C158.427 120.817 158.59 123.72 158.779 124.6C158.968 125.48 159.325 127.28 159.571 128.6C161.163 137.128 165.411 143.74 176.586 155.086C181.931 160.512 183.989 162.862 183.994 163.542C184.002 164.822 165.964 183.339 164.523 183.529C163.711 183.636 162.164 182.277 155.536 175.635C144.526 164.601 140.432 161.738 132.349 159.421C109.844 152.97 85.9 165.186 79.075 186.6C76.667 194.153 76.657 194.219 76.713 201.4C76.967 234.03 108.122 254.651 137.6 241.701C143.432 239.139 146.603 236.643 155.659 227.486C162.256 220.814 163.678 219.56 164.521 219.669C165.885 219.847 184 238.353 184 239.569C184 240.127 181.571 242.908 176.892 247.708C164.302 260.623 161.601 264.892 159.377 275.39C149.432 322.344 209.486 348.866 237.294 309.8C246.952 296.231 247.218 274.495 237.894 260.619C235.77 257.457 234.762 256.328 226.572 247.94C218.044 239.205 218.336 240.048 222.336 235.687C228.159 229.339 238.241 219.6 238.99 219.6C239.408 219.6 243.528 223.353 248.581 228.337C265.184 244.714 278.115 248.916 295.96 243.736C321 236.466 334.419 204.778 322.103 182C321.33 180.57 320.422 178.86 320.084 178.2C316.57 171.323 304.918 161.902 297.6 160.022C296.61 159.767 295.125 159.3 294.301 158.983C289.514 157.144 277.433 157.426 270.328 159.543C262.57 161.854 258.755 164.558 248.008 175.363C242.606 180.794 239.533 183.6 238.987 183.6C237.74 183.6 219.2 164.821 219.2 163.558C219.2 162.858 221.246 160.547 226.949 154.804C237.366 144.314 239.361 141.546 242.225 133.606C244.773 126.541 245.419 115.421 243.7 108.2C238.75 87.4071 218.368 72.1341 198.4 74.2551ZM206.04 99.0371C219.422 102.346 225.334 117.635 217.796 129.438C215.396 133.195 202.847 145.649 201.6 145.511C199.336 145.26 185.157 129.885 183.607 126C178.876 114.141 185.297 101.815 197.8 98.7561C200.709 98.0441 202.236 98.0961 206.04 99.0371ZM211.92 191.013C219.101 198.297 221.2 200.655 221.2 201.438C221.2 203.056 203.047 221.685 201.631 221.52C200.181 221.351 182 202.884 182 201.58C182 200.346 200.58 181.6 201.803 181.6C202.366 181.6 205.678 184.682 211.92 191.013ZM128.2 183.566C132.163 185.487 147.053 200.138 146.654 201.725C146.332 203.008 133.486 216.232 130.716 218.132C120.907 224.86 107.512 221.139 102.164 210.2L100.6 207L100.612 201.6C100.627 194.281 103.295 188.85 108.7 185.131C113.884 181.565 122.622 180.863 128.2 183.566ZM291.668 183.51C309.308 191.902 305.054 218.508 285.636 221.238C274.18 222.848 270.811 221.151 256.9 206.758C251.448 201.118 251.16 202.181 260.7 192.729C268.385 185.115 270.456 183.5 274 182.359C276.935 181.414 288.901 182.193 291.668 183.51ZM210.074 265.115C218.481 273.655 219.993 275.967 220.838 281.578C223.879 301.786 198.847 313.04 186.198 297.151C181.097 290.744 180.741 280.176 185.404 273.605C187.724 270.337 200.585 257.693 201.638 257.646C202.482 257.609 204.063 259.008 210.074 265.115Z" fill="#EDDFD1"/>
<path fill-rule="evenodd" clip-rule="evenodd" d="M0 200V400H200H400V200V0H200H0V200ZM210.476 75.216C224.907 78.279 235.991 87.991 242.183 103C245.44 110.896 245.459 124.641 242.225 133.606C239.361 141.546 237.366 144.314 226.949 154.804C221.246 160.547 219.2 162.858 219.2 163.558C219.2 164.821 237.74 183.6 238.987 183.6C239.533 183.6 242.606 180.794 248.008 175.363C258.755 164.558 262.57 161.854 270.328 159.543C277.433 157.426 289.514 157.144 294.301 158.983C295.125 159.3 296.61 159.767 297.6 160.022C304.918 161.902 316.57 171.323 320.084 178.2C320.422 178.86 321.33 180.57 322.103 182C334.419 204.778 321 236.466 295.96 243.736C278.115 248.916 265.184 244.714 248.581 228.337C243.528 223.353 239.408 219.6 238.99 219.6C238.241 219.6 228.159 229.339 222.336 235.687C218.336 240.048 218.044 239.205 226.572 247.94C236.209 257.811 238.314 260.393 240.331 264.819C246.365 278.058 246.286 291.362 240.092 305.2C238.005 309.864 232.066 316.743 226.916 320.46C194.487 343.872 151.016 314.863 159.377 275.39C161.601 264.892 164.302 260.623 176.892 247.708C181.571 242.908 184 240.127 184 239.569C184 238.353 165.885 219.847 164.521 219.669C163.678 219.56 162.256 220.814 155.659 227.486C146.603 236.643 143.432 239.139 137.6 241.701C108.122 254.651 76.967 234.03 76.713 201.4C76.657 194.219 76.667 194.153 79.075 186.6C85.9 165.186 109.844 152.97 132.349 159.421C140.432 161.738 144.526 164.601 155.536 175.635C162.164 182.277 163.711 183.636 164.523 183.529C165.964 183.339 184.002 164.822 183.994 163.542C183.989 162.862 181.931 160.512 176.586 155.086C165.411 143.74 161.163 137.128 159.571 128.6C159.325 127.28 158.968 125.48 158.779 124.6C154.239 103.492 171.297 79.083 193.4 75.059C199.867 73.882 204.383 73.923 210.476 75.216ZM197.8 98.756C185.297 101.815 178.876 114.141 183.607 126C185.157 129.885 199.336 145.26 201.6 145.511C202.847 145.649 215.396 133.195 217.796 129.438C223.583 120.376 221.519 108.545 213.048 102.224C208.696 98.977 202.582 97.586 197.8 98.756ZM191.483 191.134C184.663 197.99 182 200.924 182 201.58C182 202.884 200.181 221.351 201.631 221.52C203.047 221.685 221.2 203.056 221.2 201.438C221.2 200.108 203.103 181.6 201.803 181.6C201.241 181.6 197.838 184.744 191.483 191.134ZM113.157 182.929C105.047 185.855 100.631 192.426 100.612 201.6L100.6 207L102.164 210.2C107.512 221.139 120.907 224.86 130.716 218.132C133.486 216.232 146.332 203.008 146.654 201.725C147.053 200.138 132.163 185.487 128.2 183.566C124.335 181.693 117.399 181.4 113.157 182.929ZM274 182.359C270.456 183.5 268.385 185.115 260.7 192.729C251.16 202.181 251.448 201.118 256.9 206.758C270.811 221.151 274.18 222.848 285.636 221.238C305.054 218.508 309.308 191.902 291.668 183.51C288.901 182.193 276.935 181.414 274 182.359ZM193.501 264.946C185.099 273.531 184.773 273.961 183.159 278.588C178.173 292.884 190.617 307.295 205.321 304.254C218.198 301.591 224.817 287.662 218.931 275.615C217.019 271.702 203.416 257.567 201.638 257.646C200.847 257.681 198.91 259.42 193.501 264.946Z" fill="#24231C"/>
</g>
<defs>
<clipPath id="clip0_37_2">
<rect width="400" height="400" rx="200" fill="white"/>
</clipPath>
</defs>
</svg>
