<svg width="250" height="250" fill="none" xmlns="http://www.w3.org/2000/svg"><path fill-rule="evenodd" clip-rule="evenodd" d="M125 11.508C62.328 11.508 11.508 62.307 11.508 125c0 62.693 50.82 113.492 113.492 113.492 62.672 0 113.492-50.799 113.492-113.492 0-62.671-50.821-113.492-113.492-113.492ZM0 125C0 55.95 55.974 0 125 0c69.027 0 125 55.973 125 125 0 69.05-55.974 125-125 125C55.974 250 0 194.05 0 125Z" fill="#FF7B7C"/><path fill-rule="evenodd" clip-rule="evenodd" d="m174.346 95.217-31.532-1.311 21.428-23.2-8.631-8.609-23.223 21.36-1.266-31.533h-12.175l-1.312 31.532-23.2-21.428-8.608 8.631 21.382 23.223-31.555 1.243v12.199l31.532 1.312-21.428 23.2 8.63 8.608 22.856-21.037 1.012 51.096-18.251 1.335v11.347l18.527 1.404.346 17.745h12.175l.368-17.722 18.712-1.427v-11.347l-18.435-1.335 1.035-51.073 22.832 21.06 8.608-8.608-21.359-23.223 31.532-1.266V95.217Z" fill="#FF7B7C"/></svg>