<?xml version="1.0" encoding="UTF-8"?> <svg xmlns="http://www.w3.org/2000/svg" xmlns:xlink="http://www.w3.org/1999/xlink" version="1.1" id="Component_341_1" x="0px" y="0px" viewBox="0 0 31.9 31.9" style="enable-background:new 0 0 31.9 31.9;" xml:space="preserve"> <style type="text/css"> .st0{fill:#FF5500;} </style> <g id="Group_198"> <path id="Path_19" class="st0" d="M16,0C7.1,0,0,7.1,0,16c0,8.8,7.1,16,16,16c8.8,0,16-7.1,16-16S24.8,0,16,0L16,0z M21.5,23.9 H10.4c-1.3,0-2.4-1.1-2.4-2.4v0V10.4C8,9.1,9.1,8,10.4,8l0,0h11.2c1.3,0,2.4,1.1,2.4,2.4v0v11.2C23.9,22.9,22.9,23.9,21.5,23.9 L21.5,23.9z"></path> </g> </svg> 