<svg width="1020" height="1021" fill="none" xmlns="http://www.w3.org/2000/svg"><g clip-path="url(#a)"><path d="m350.625 756.175-10.98 6.33.008-12.674s-.153 6.481 2.772 8.101c2.865 1.587 8.2-1.757 8.2-1.757Z" fill="#8E3315"/><path d="M68.866 743.105c61.883 117.023 167.721 204.653 294.231 243.64a499.187 499.187 0 0 0 380.363-35.763 499.179 499.179 0 0 0 243.682-294.233c38.998-126.508 25.878-263.327-36.009-380.35C1006.93 452.266 812.659 514.05 812.659 514.05L577.527 636.94 333.158 764.393S166.609 871.611 68.866 743.105Z" fill="#473ADE"/><path d="M67.992 743.963a499.113 499.113 0 0 0 294.23 243.656c126.511 38.991 263.332 26.121 380.363-35.763a499.184 499.184 0 0 0 243.683-294.233c38.992-126.508 26.142-263.323-35.744-380.346 55.806 175.867-138.739 237.648-138.739 237.648L576.652 637.814 332.283 765.267S165.734 872.469 67.991 743.963Z" fill="url(#b)"/><path d="m806.395 501.85 18.152 8.824-19.161 7.688s8.221-3.882 9.203-7.688c.961-3.728-8.194-8.824-8.194-8.824Z" fill="#251E73"/><path d="M954.155 737.884c60.425-117.78 71.595-254.743 31.034-380.759A499.184 499.184 0 0 0 737.884 65.929a499.182 499.182 0 0 0-380.776-31.053A499.113 499.113 0 0 0 65.915 282.154c112.134-146.522 274.259-22.511 274.259-22.511l235.466 122.25 244.499 127.203s183.301 75.04 134.016 228.788Z" fill="#D71D6A"/><path d="M952.957 737.4a497.591 497.591 0 0 0 30.941-379.625A497.696 497.696 0 0 0 737.33 67.447a497.696 497.696 0 0 0-379.642-30.961A497.628 497.628 0 0 0 67.362 283.028c111.8-146.085 273.443-22.444 273.443-22.444l234.764 121.885L819.34 509.294S1002.1 584.111 952.957 737.4Z" fill="url(#c)"/><path d="m339.718 271.473-.205-13.27 11.595 6.457s-5.854-3.438-8.825-1.586c-2.91 1.815-2.565 8.399-2.565 8.399Z" fill="#741039"/><path d="M510.073 10.772a499.114 499.114 0 0 0-352.939 146.202A499.184 499.184 0 0 0 10.942 509.937a499.181 499.181 0 0 0 146.192 352.962A499.114 499.114 0 0 0 510.072 1009.1c-169.896-28.523-169.896-248.639-169.896-248.639V254.98s0-213.798 169.897-244.208Z" fill="#FF5B25"/><path d="M510.073 9.606a499.114 499.114 0 0 0-352.939 146.202A499.182 499.182 0 0 0 10.942 508.77a499.184 499.184 0 0 0 146.192 352.963 499.11 499.11 0 0 0 352.938 146.197c-169.896-54.276-169.896-247.195-169.896-247.195V259.643S333.995 41.953 510.073 9.606Z" fill="url(#d)"/><path d="M510.073 9.606a499.114 499.114 0 0 0-352.939 146.202A499.182 499.182 0 0 0 10.942 508.77a499.184 499.184 0 0 0 146.192 352.963 499.11 499.11 0 0 0 352.938 146.197c-169.896-54.276-169.896-247.195-169.896-247.195V259.643S333.995 41.953 510.073 9.606Z" fill="url(#e)" fill-opacity=".3"/><path d="M508.761 1008.88c-168.586-76.791-168.387-248.222-168.387-248.222S131.422 878.529 61.078 727.771c0 0 117.921 282.109 447.683 281.109Z" fill="#473ADE"/></g><defs><linearGradient id="b" x1="950.562" y1="453.024" x2="224.312" y2="1170.08" gradientUnits="userSpaceOnUse"><stop stop-opacity=".6"/><stop offset=".656" stop-opacity="0"/></linearGradient><linearGradient id="c" x1="210.929" y1="182.571" x2="1211.78" y2="366.19" gradientUnits="userSpaceOnUse"><stop stop-opacity=".6"/><stop offset=".646" stop-opacity="0"/></linearGradient><linearGradient id="d" x1="278.241" y1="946.1" x2="-18.688" y2="31.529" gradientUnits="userSpaceOnUse"><stop stop-opacity=".6"/><stop offset=".675" stop-opacity="0"/></linearGradient><linearGradient id="e" x1="278.241" y1="946.1" x2="-18.688" y2="31.529" gradientUnits="userSpaceOnUse"><stop stop-opacity=".6"/><stop offset=".675" stop-opacity="0"/></linearGradient><clipPath id="a"><path fill="#fff" d="M0 0h1020v1020.51H0z"/></clipPath></defs></svg>