<svg width="48" height="48" fill="none" xmlns="http://www.w3.org/2000/svg"><g clip-path="url(#a)"><path d="M45.872 8.485c-.489-1.881-2.06-3.763-4.887-5.858C38.717.96 36.31 0 34.39 0a5.33 5.33 0 0 0-1.082.107c-.873.177-1.64.816-2.13 1.775-.592 1.136-.732 2.662-.348 3.586.14.284.314.638.523.958-1.85 1.136-2.896 1.456-3.036 1.491 4.816 1.633 8.83 5.042 11.343 9.48l.035-.427c.105-1.171.454-2.52.942-3.905.489.142.978.213 1.466.213 1.292 0 2.409-.532 3.107-1.491.697-.959.977-2.237.663-3.302Z" fill="#5E12A0"/><path d="M40.846 12.036c3.176.887 4.468-1.598 4.049-3.267-.454-1.668-1.92-3.372-4.503-5.29-2.582-1.917-5.2-2.698-6.875-2.343-1.676.355-2.164 2.947-1.745 3.941.174.39.558.959 1.081 1.598-.663.461-1.29.816-1.814 1.136a20.703 20.703 0 0 1 8.097 6.568c.244-.959.593-1.81.907-2.556.245.035.524.106.803.213Z" fill="url(#b)"/><path d="M22.662 46.828c10.775 0 19.51-8.885 19.51-19.846 0-10.96-8.735-19.846-19.51-19.846-10.775 0-19.51 8.886-19.51 19.846 0 10.961 8.735 19.846 19.51 19.846Z" fill="url(#c)"/><path opacity=".6" d="M43.29 7.136c-2.653-2.84-4.887-3.586-7.575-4.19-2.094-.496-1.535-1.703 1.013-1.455-1.222-.426-2.374-.532-3.211-.355-1.676.355-2.164 2.947-1.745 3.94.174.392.558.96 1.081 1.599-.942.639-1.745 1.1-2.408 1.455.314.142.698.32 1.152.568 1.187.64 2.478 1.704 2.478 1.704C32.121 8.698 32.54 7.917 35.227 6c.838-.604 2.373-.532 3.804.213 1.431.746 3.107 2.627 3.107 2.627l-1.606 3.124.314.107c1.012.284 1.815.213 2.443-.035.733-.462 2.653-2.024 0-4.9Z" fill="#A98698"/><path d="M35.68 4.65c.699.285 1.606.782 2.723 1.527 1.326.888 2.478 1.882 3.21 2.663-1.22 1.633-2.024 3.87-2.512 5.432.244.355.523.71.768 1.065.244-.887.663-2.2 1.221-3.515.14.036.314.036.489.036.419 0 .907-.071 1.291-.39.28-.214.594-.604.559-1.314 0-.675-.524-1.527-1.606-2.556-.768-.746-1.815-1.563-2.862-2.308-3.001-2.024-5.096-2.592-6.038-1.633-.628.639-.558 1.42-.349 1.988-1.117.746-2.06 1.278-2.687 1.633.418.142.802.32 1.221.497 1.117-.603 2.723-1.633 4.572-3.124Zm6.597 5.078c.105.177.14.355.14.461 0 .32-.105.426-.175.497-.14.107-.419.178-.663.178.21-.426.454-.781.698-1.136Zm-8.62-5.29c.104-.107.383-.178.837-.107-.35.284-.698.533-1.047.781-.035-.248 0-.497.21-.674Z" fill="#5E12A0"/><path d="M22.662 5.964C11.249 5.964 2 15.373 2 26.982 2 38.592 11.249 48 22.662 48c11.413 0 20.662-9.408 20.662-21.018 0-11.61-9.284-21.018-20.662-21.018Zm0 40.864c-10.785 0-19.51-8.875-19.51-19.846 0-10.97 8.725-19.846 19.51-19.846 10.785 0 19.51 8.876 19.51 19.846s-8.76 19.846-19.51 19.846Z" fill="#5E12A0"/><path opacity=".6" d="M22.662 46.828c10.775 0 19.51-8.885 19.51-19.846 0-10.96-8.735-19.846-19.51-19.846-10.775 0-19.51 8.886-19.51 19.846 0 10.961 8.735 19.846 19.51 19.846Z" fill="url(#d)"/><path opacity=".6" d="M22.523 44.414c-10.646-1.74-17.87-11.929-16.125-22.757.768-4.793 3.14-8.876 6.492-11.823-4.887 2.876-8.517 7.882-9.494 13.989C1.686 34.65 8.911 44.84 19.521 46.58c5.933.994 11.657-.888 15.88-4.58a19.29 19.29 0 0 1-12.879 2.414Z" fill="#A98698"/><path opacity=".6" d="M25.768 7.42c-4.92-.816-9.702.32-13.611 2.84l-.14.143c1.5-.924 3.7-1.74 3.7-1.74-5.655 3.337-7.4 7.136-7.4 7.136 2.2-4.331 8.656-7.385 13.717-7.598 5.06-.213 8.376 1.314 12.425 4.616 4.049 3.337 6.492 10.154 6.247 15.55-.209 5.396-3.001 9.763-3.001 9.763 1.92-2.52 3.071-4.367 3.804-6.248.14-.568.28-1.136.35-1.74C43.602 19.35 36.412 9.16 25.768 7.42Z" fill="url(#e)"/><path d="M41.195 26.805c0 10.402-8.307 18.852-18.533 18.852S4.094 37.207 4.094 26.805h37.1Z" fill="url(#f)"/><path opacity=".6" d="M39.73 26.805c0 10.154-7.889 18.461-17.8 18.852h.732c10.227 0 18.533-8.45 18.533-18.852H39.73Z" fill="url(#g)"/><path opacity=".7" d="M6.712 26.805H4.094c0 10.402 8.307 18.852 18.533 18.852.454 0 .873 0 1.291-.036-9.598-.71-17.206-8.876-17.206-18.816Z" fill="url(#h)"/><path d="M41.16 26.982c0-2.165-3.7-3.408-8.62-3.834-3.56-.284-7.156.07-11.274 1.349-3.56 1.065-6.771.888-9.11.604-5.2-.604-8.062-.675-8.062 1.881 0 3.692 7.4 8.308 18.498 6.71 5.62-.816 8.516-2.485 11.832-3.621 3.595-1.207 6.736-1.172 6.736-3.089Z" fill="url(#i)"/><path d="M28.735 18.035c1.735 0 3.141-1.43 3.141-3.195 0-1.764-1.406-3.195-3.141-3.195s-3.141 1.43-3.141 3.195 1.406 3.195 3.141 3.195ZM33.865 20.414c.733 0 1.327-.604 1.327-1.349s-.594-1.35-1.327-1.35c-.732 0-1.326.605-1.326 1.35 0 .745.594 1.35 1.326 1.35Z" fill="#fff"/><path opacity=".6" d="M38.612 12.284h-.07c-.209-.036-.348-.248-.314-.497.315-1.633 1.64-3.195 1.71-3.266a.387.387 0 0 1 .56-.036.403.403 0 0 1 .034.568c-.035.036-1.256 1.491-1.536 2.911a.376.376 0 0 1-.384.32Z" fill="url(#j)"/><path opacity=".2" d="M21.373 41.787c.54 0 .977-.445.977-.994a.986.986 0 0 0-.977-.994.986.986 0 0 0-.978.994c0 .549.438.994.978.994Z" fill="#fff"/><g opacity=".4"><path opacity=".6" d="M20.812 41.433a1.02 1.02 0 0 1 0-1.42c.07-.071.14-.107.21-.178a.722.722 0 0 0-.35.213 1.02 1.02 0 0 0 0 1.42c.315.32.803.391 1.187.178a.963.963 0 0 1-1.047-.213Z" fill="url(#k)"/></g><path opacity=".3" d="M21.72 40.509c.115 0 .21-.096.21-.213a.211.211 0 0 0-.21-.213.211.211 0 0 0-.21.213c0 .117.094.213.21.213Z" fill="#fff"/><path opacity=".2" d="M26.468 41.29c.54 0 .978-.445.978-.994a.986.986 0 0 0-.978-.994.986.986 0 0 0-.977.994c0 .549.438.994.977.994Z" fill="#fff"/><g opacity=".4"><path opacity=".6" d="M25.908 40.936a1.02 1.02 0 0 1 0-1.42c.07-.071.14-.107.21-.178a.722.722 0 0 0-.35.213 1.02 1.02 0 0 0 0 1.42c.314.32.803.39 1.187.178a.963.963 0 0 1-1.047-.213Z" fill="url(#l)"/></g><path opacity=".3" d="M26.815 40.012c.116 0 .21-.096.21-.213a.211.211 0 0 0-.21-.213.211.211 0 0 0-.209.213c0 .117.094.213.21.213Z" fill="#fff"/><path opacity=".2" d="M23.954 43.598a.74.74 0 0 0 .733-.746.74.74 0 0 0-.733-.745.74.74 0 0 0-.733.745.74.74 0 0 0 .733.746Z" fill="#fff"/><g opacity=".4"><path opacity=".6" d="M23.535 43.315a.782.782 0 0 1 0-1.066c.035-.035.105-.07.14-.106-.105.035-.175.106-.245.178a.782.782 0 0 0 0 1.065c.244.248.593.284.907.106a.75.75 0 0 1-.802-.177Z" fill="url(#m)"/></g><path opacity=".3" d="M24.198 42.603a.14.14 0 0 0 .14-.142.14.14 0 0 0-.14-.142.14.14 0 0 0-.14.142.14.14 0 0 0 .14.142Z" fill="#fff"/><path opacity=".2" d="M28.456 43.065a.74.74 0 0 0 .733-.745.74.74 0 0 0-.733-.746.74.74 0 0 0-.733.745.74.74 0 0 0 .733.746Z" fill="#fff"/><g opacity=".4"><path opacity=".6" d="M28.037 42.782a.782.782 0 0 1 0-1.065c.035-.036.105-.071.14-.107-.105.036-.175.107-.245.178a.782.782 0 0 0 0 1.065c.244.248.593.284.908.106a.75.75 0 0 1-.803-.177Z" fill="url(#n)"/></g><path opacity=".3" d="M28.7 42.071a.14.14 0 0 0 .14-.142.14.14 0 0 0-.14-.142.14.14 0 0 0-.14.142.14.14 0 0 0 .14.142Z" fill="#fff"/><path opacity=".2" d="M17.217 41.432c.887 0 1.606-.731 1.606-1.633s-.72-1.633-1.606-1.633c-.886 0-1.605.73-1.605 1.633 0 .902.719 1.633 1.605 1.633Z" fill="#fff"/><g opacity=".4"><path opacity=".6" d="M16.31 40.828a1.648 1.648 0 0 1 0-2.307c.106-.107.21-.178.35-.249-.21.071-.384.213-.558.355a1.648 1.648 0 0 0 0 2.308 1.567 1.567 0 0 0 1.954.248c-.593.249-1.291.142-1.745-.355Z" fill="url(#o)"/></g><path opacity=".3" d="M17.776 39.302c.193 0 .349-.16.349-.355a.352.352 0 0 0-.35-.355.352.352 0 0 0-.348.355c0 .196.156.355.349.355Z" fill="#fff"/><path opacity=".2" d="M31.563 37.42c.887 0 1.606-.731 1.606-1.633s-.72-1.633-1.606-1.633c-.887 0-1.605.731-1.605 1.633s.718 1.633 1.605 1.633Z" fill="#fff"/><g opacity=".4"><path opacity=".6" d="M30.62 36.816a1.648 1.648 0 0 1 0-2.307c.104-.107.209-.178.349-.249-.21.071-.384.213-.559.355a1.648 1.648 0 0 0 0 2.308c.524.533 1.326.64 1.955.249a1.547 1.547 0 0 1-1.745-.355Z" fill="url(#p)"/></g><path opacity=".3" d="M32.12 35.29c.193 0 .35-.159.35-.355a.352.352 0 0 0-.35-.355.352.352 0 0 0-.348.355c0 .196.156.355.349.355Z" fill="#fff"/></g><defs><linearGradient id="d" x1="19.532" y1="46.547" x2="25.984" y2="7.42" gradientUnits="userSpaceOnUse"><stop stop-color="#81FFFF"/><stop offset=".62" stop-color="#fff" stop-opacity="0"/></linearGradient><linearGradient id="e" x1="36.412" y1="13.504" x2="20.027" y2="28.283" gradientUnits="userSpaceOnUse"><stop offset=".289" stop-color="#fff"/><stop offset=".78" stop-color="#fff" stop-opacity="0"/></linearGradient><linearGradient id="f" x1="4.11" y1="36.22" x2="41.186" y2="36.22" gradientUnits="userSpaceOnUse"><stop stop-color="#0002E9"/><stop offset=".995" stop-color="#FF00C7"/></linearGradient><linearGradient id="g" x1="42.941" y1="28.459" x2="22.436" y2="47.509" gradientUnits="userSpaceOnUse"><stop offset=".289" stop-color="#fff"/><stop offset=".78" stop-color="#fff" stop-opacity="0"/></linearGradient><linearGradient id="h" x1="4.11" y1="36.22" x2="23.945" y2="36.22" gradientUnits="userSpaceOnUse"><stop stop-color="#000292"/><stop offset=".995" stop-color="#7D00C7"/></linearGradient><linearGradient id="i" x1="4.135" y1="28.548" x2="41.161" y2="28.548" gradientUnits="userSpaceOnUse"><stop stop-color="#000292"/><stop offset=".995" stop-color="#BE00C7"/></linearGradient><linearGradient id="j" x1="40.554" y1="8.348" x2="37.826" y2="12.705" gradientUnits="userSpaceOnUse"><stop offset=".289" stop-color="#fff"/><stop offset=".78" stop-color="#fff" stop-opacity="0"/></linearGradient><linearGradient id="k" x1="20.384" y1="40.824" x2="21.86" y2="40.824" gradientUnits="userSpaceOnUse"><stop offset=".289" stop-color="#fff"/><stop offset=".78" stop-color="#fff" stop-opacity="0"/></linearGradient><linearGradient id="l" x1="25.476" y1="40.321" x2="26.953" y2="40.321" gradientUnits="userSpaceOnUse"><stop offset=".289" stop-color="#fff"/><stop offset=".78" stop-color="#fff" stop-opacity="0"/></linearGradient><linearGradient id="m" x1="23.216" y1="42.861" x2="24.325" y2="42.861" gradientUnits="userSpaceOnUse"><stop offset=".289" stop-color="#fff"/><stop offset=".78" stop-color="#fff" stop-opacity="0"/></linearGradient><linearGradient id="n" x1="27.703" y1="42.328" x2="28.812" y2="42.328" gradientUnits="userSpaceOnUse"><stop offset=".289" stop-color="#fff"/><stop offset=".78" stop-color="#fff" stop-opacity="0"/></linearGradient><linearGradient id="o" x1="15.614" y1="39.84" x2="18.026" y2="39.84" gradientUnits="userSpaceOnUse"><stop offset=".289" stop-color="#fff"/><stop offset=".78" stop-color="#fff" stop-opacity="0"/></linearGradient><linearGradient id="p" x1="29.936" y1="35.827" x2="32.348" y2="35.827" gradientUnits="userSpaceOnUse"><stop offset=".289" stop-color="#fff"/><stop offset=".78" stop-color="#fff" stop-opacity="0"/></linearGradient><radialGradient id="b" cx="0" cy="0" r="1" gradientUnits="userSpaceOnUse" gradientTransform="matrix(15.5992 0 0 15.8678 44.258 6.533)"><stop stop-color="#FFEAFF" stop-opacity=".6"/><stop offset=".681" stop-color="#A087C9"/><stop offset="1" stop-color="#10002F"/></radialGradient><radialGradient id="c" cx="0" cy="0" r="1" gradientUnits="userSpaceOnUse" gradientTransform="matrix(38.1657 0 0 38.8229 35.58 13.3)"><stop stop-color="#FFEAFF" stop-opacity=".6"/><stop offset=".681" stop-color="#A087C9"/><stop offset="1" stop-color="#10002F"/></radialGradient><clipPath id="a"><path fill="#fff" transform="translate(2)" d="M0 0h44v48H0z"/></clipPath></defs></svg>