<svg xmlns="http://www.w3.org/2000/svg" height="396" width="396"><path d="M198 396c-52.9 0-102.6-20.6-140-58-37.4-37.4-58-87.1-58-140C0 145.1 20.6 95.4 58 58 95.4 20.6 145.1 0 198 0c52.9 0 102.6 20.6 140 58 37.4 37.4 58 87.1 58 140 0 52.9-20.6 102.6-58 140-37.4 37.4-87.1 58-140 58Zm0-379.9C97.7 16.1 16.1 97.7 16.1 198c0 100.3 81.6 181.9 181.9 181.9 100.3 0 181.9-81.6 181.9-181.9 0-100.3-81.6-181.9-181.9-181.9ZM174.4 140 58.8 111.4l76.8 91.1-63 101.2L183 258.8l76.8 91.1-8.6-118.8 110.4-44.9L246 157.6l-8.6-118.8-63 101.2Z" fill="#DB2877" fill-rule="nonzero"/></svg>