<?xml version="1.0" encoding="utf-8"?><!-- Uploaded to: SVG Repo, www.svgrepo.com, Generator: SVG Repo Mixer Tools -->
<svg width="800px" height="800px" viewBox="0 0 24 24" fill="none" xmlns="http://www.w3.org/2000/svg">
<path d="M17.9227 3.52798C18.2607 3.18992 18.7193 3 19.1973 3C19.6754 3 20.134 3.18992 20.472 3.52798C20.8101 3.86605 21 4.32456 21 4.80265C21 5.28075 20.8101 5.73926 20.472 6.07732L12.3991 14.1502L9 15L9.84978 11.6009L17.9227 3.52798Z" stroke="#99bbff" stroke-width="2" stroke-linecap="round" stroke-linejoin="round"/>
<path d="M16 6L18 8" stroke="#99bbff" stroke-width="2" stroke-linecap="round" stroke-linejoin="round"/>
<path d="M12.5 3H12C7.02944 3 3 7.02944 3 12C3 16.9706 7.02944 21 12 21C16.9706 21 21 16.9706 21 12V11.5" stroke="#99bbff" stroke-width="2" stroke-linecap="round"/>
</svg>